<?xml version="1.0" encoding="UTF-8"?>
<svg id="Head" xmlns="http://www.w3.org/2000/svg" viewBox="0 0 1024 1024">
  <defs>
    <style>
      .cls-1 {
        fill: #fefefe;
      }
    </style>
  </defs>
  <path class="cls-1" d="M907.53,555.12c-4.7-16.13-15.8-40.92-31.92-41.1l-28.88-.32c-17.2-53.38-48.52-102.58-89.9-140.52l-19.4-16.89c-55.6-44.35-123.64-70.35-194.49-75.52,0,0-22.83-1.05-30.44-1.05-7.88,0-31.52,1.09-31.52,1.09-101.43,7.7-197.5,59.81-257.05,143.04-19.59,27.37-34.71,57.17-45.48,89.39l-27.68.27c-11.78.12-22.1,14.42-27.06,25.71-7.6,17.29-11.31,34.99-13.28,53.84-3.38,32.32-1.93,64.49,6.91,95.76,3.22,11.41,7.63,22.04,14.77,31.12,3.59,4.57,9.06,9.96,14.81,10.04l25.78.36,6.02,16.22c16.11,43.38,45.22,82.19,81.44,111.37,73.08,58.87,169.07,82.64,262.3,80.92,62.24-1.15,124.95-14.52,180.78-41.9,69.27-33.97,125.99-90.98,148.38-166.42h20.49c18.68,0,28.19-19,33.82-36.43,13.31-41.15,13.65-97.57,1.59-138.98ZM819.04,739.19c-25.14,54.77-71.48,96.52-124.6,124.11-78.02,40.52-170.84,51.64-257.09,36.06-70.39-12.71-139.42-44.79-188.57-97.1-17.74-18.88-32.06-39.63-42.82-63.07-24.16-52.64-24.16-112.02,0-164.66,25.14-54.79,71.47-96.49,124.6-124.1,78.18-40.63,171.51-51.73,257.91-35.92,70.31,12.86,139.25,45.06,188.22,97.46,17.53,18.76,31.68,39.33,42.34,62.55,24.16,52.64,24.16,112.03,0,164.66Z"/>
  <path class="cls-1" d="M664.04,482.79c-66.28-31.15-143.35-39.35-215.38-27.2-80.34,13.55-164.83,57.17-201.41,132.32-21.36,43.88-21.36,94.02,0,137.9,36.56,75.11,121.1,118.81,201.41,132.32,71.93,12.1,148.43,4.03,214.7-26.89,47.91-22.35,91.04-57.51,114.37-105.43,21.36-43.88,21.36-94.02,0-137.9-23.23-47.72-66.04-82.72-113.7-105.12Z"/>
</svg>